<?xml version="1.0" encoding="UTF-8"?>
<svg width="32px" height="32px" viewBox="0 0 32 32" version="1.1" xmlns="http://www.w3.org/2000/svg">
    <title>The Opportunity League Favicon</title>
    <g stroke="none" stroke-width="1" fill="none" fill-rule="evenodd">
        <circle fill="#FF6B00" cx="16" cy="16" r="16"></circle>
        <path d="M16,7 C20.9705627,7 25,11.0294373 25,16 C25,20.9705627 20.9705627,25 16,25 C11.0294373,25 7,20.9705627 7,16 C7,11.0294373 11.0294373,7 16,7 Z M16,9 C12.1340068,9 9,12.1340068 9,16 C9,19.8659932 12.1340068,23 16,23 C19.8659932,23 23,19.8659932 23,16 C23,12.1340068 19.8659932,9 16,9 Z" fill="#FFFFFF" fill-rule="nonzero"></path>
        <path d="M16,12 C18.209139,12 20,13.790861 20,16 C20,18.209139 18.209139,20 16,20 C13.790861,20 12,18.209139 12,16 C12,13.790861 13.790861,12 16,12 Z" fill="#FFFFFF"></path>
    </g>
</svg>
